<mxfile modified="2022-05-03T21:30:00.112Z" host="app.diagrams.net" agent="5.0 (Windows NT 10.0; Win64; x64) AppleWebKit/537.36 (KHTML, like Gecko) Chrome/100.0.4896.127 Safari/537.36 Edg/100.0.1185.50" etag="YO_KTDpDC6yJONDQ7b3u" compressed="false" version="17.5.0" type="google">
  <diagram name="Functionality/Capabilities/Functionality (HL)" id="2yYSDzSfIQ58HEtROOxH">
    <mxGraphModel grid="1" page="1" gridSize="10" guides="1" tooltips="1" connect="0" arrows="1" fold="1" pageScale="1" pageWidth="827" pageHeight="1169" math="0" shadow="0">
      <root>
        <mxCell id="ZFAzNytfcKb0PuMbo4Is-0" />
        <mxCell id="ZFAzNytfcKb0PuMbo4Is-1" parent="ZFAzNytfcKb0PuMbo4Is-0" />
        <mxCell id="ZFAzNytfcKb0PuMbo4Is-18" value="Users &amp;amp; Groups" style="rounded=1;whiteSpace=wrap;html=1;strokeWidth=1;fillColor=#f5f5f5;dashed=1;absoluteArcSize=1;arcSize=8;container=1;collapsible=0;recursiveResize=0;align=left;verticalAlign=top;strokeColor=#666666;fontColor=#333333;" vertex="1" parent="ZFAzNytfcKb0PuMbo4Is-1">
          <mxGeometry x="280" y="271" width="150" height="120" as="geometry" />
        </mxCell>
        <mxCell id="ZFAzNytfcKb0PuMbo4Is-41" value="Configuration" style="rounded=1;whiteSpace=wrap;html=1;strokeWidth=1;fillColor=none;dashed=1;absoluteArcSize=1;arcSize=8;container=1;collapsible=0;recursiveResize=0;align=left;verticalAlign=top;" vertex="1" parent="ZFAzNytfcKb0PuMbo4Is-1">
          <mxGeometry x="120" y="160" width="150" height="100" as="geometry" />
        </mxCell>
        <mxCell id="ZFAzNytfcKb0PuMbo4Is-58" value="Auditing" style="rounded=1;whiteSpace=wrap;html=1;strokeWidth=1;fillColor=none;dashed=1;absoluteArcSize=1;arcSize=8;container=1;collapsible=0;recursiveResize=0;align=left;verticalAlign=top;" vertex="1" parent="ZFAzNytfcKb0PuMbo4Is-1">
          <mxGeometry x="120" y="271" width="150" height="120" as="geometry" />
        </mxCell>
        <mxCell id="sR3SkIJTR-7eFmaKNw6q-3" value="Session Mgmt" style="rounded=0;whiteSpace=wrap;html=1;" vertex="1" parent="ZFAzNytfcKb0PuMbo4Is-58">
          <mxGeometry x="10" y="29" width="130" height="20" as="geometry" />
        </mxCell>
        <mxCell id="sR3SkIJTR-7eFmaKNw6q-4" value="&lt;font style=&quot;font-size: 11px&quot;&gt;Session Operation Mgmt&lt;/font&gt;" style="rounded=0;whiteSpace=wrap;html=1;" vertex="1" parent="ZFAzNytfcKb0PuMbo4Is-58">
          <mxGeometry x="10" y="49" width="130" height="20" as="geometry" />
        </mxCell>
        <mxCell id="ZFAzNytfcKb0PuMbo4Is-69" value="Profiles" style="rounded=1;whiteSpace=wrap;html=1;strokeWidth=1;fillColor=none;dashed=1;absoluteArcSize=1;arcSize=8;container=1;collapsible=0;recursiveResize=0;align=left;verticalAlign=top;" vertex="1" parent="ZFAzNytfcKb0PuMbo4Is-1">
          <mxGeometry x="440" y="270" width="150" height="120" as="geometry" />
        </mxCell>
        <mxCell id="ZFAzNytfcKb0PuMbo4Is-85" value="Communication" style="rounded=1;whiteSpace=wrap;html=1;strokeWidth=1;fillColor=none;dashed=1;absoluteArcSize=1;arcSize=8;container=1;collapsible=0;recursiveResize=0;align=left;verticalAlign=top;" vertex="1" parent="ZFAzNytfcKb0PuMbo4Is-1">
          <mxGeometry x="120" y="490" width="150" height="120" as="geometry" />
        </mxCell>
        <mxCell id="sR3SkIJTR-7eFmaKNw6q-5" value="Statement Mgmt" style="rounded=0;whiteSpace=wrap;html=1;" vertex="1" parent="ZFAzNytfcKb0PuMbo4Is-85">
          <mxGeometry x="10" y="30" width="130" height="20" as="geometry" />
        </mxCell>
        <mxCell id="sR3SkIJTR-7eFmaKNw6q-6" value="Notification Mgmt" style="rounded=0;whiteSpace=wrap;html=1;" vertex="1" parent="ZFAzNytfcKb0PuMbo4Is-85">
          <mxGeometry x="10" y="50" width="130" height="20" as="geometry" />
        </mxCell>
        <mxCell id="ZFAzNytfcKb0PuMbo4Is-117" value="Discovery" style="rounded=1;whiteSpace=wrap;html=1;strokeWidth=1;fillColor=none;dashed=1;absoluteArcSize=1;arcSize=8;container=1;collapsible=0;recursiveResize=0;align=left;verticalAlign=top;" vertex="1" parent="ZFAzNytfcKb0PuMbo4Is-1">
          <mxGeometry x="440" y="530" width="150" height="80" as="geometry" />
        </mxCell>
        <mxCell id="sR3SkIJTR-7eFmaKNw6q-37" value="Routing" style="rounded=0;whiteSpace=wrap;html=1;" vertex="1" parent="ZFAzNytfcKb0PuMbo4Is-117">
          <mxGeometry x="10" y="30" width="130" height="20" as="geometry" />
        </mxCell>
        <mxCell id="sR3SkIJTR-7eFmaKNw6q-38" value="Search" style="rounded=0;whiteSpace=wrap;html=1;" vertex="1" parent="ZFAzNytfcKb0PuMbo4Is-117">
          <mxGeometry x="10" y="50" width="130" height="20" as="geometry" />
        </mxCell>
        <mxCell id="sR3SkIJTR-7eFmaKNw6q-0" value="Error Configuration" style="rounded=0;whiteSpace=wrap;html=1;" vertex="1" parent="ZFAzNytfcKb0PuMbo4Is-1">
          <mxGeometry x="130" y="190" width="130" height="20" as="geometry" />
        </mxCell>
        <mxCell id="sR3SkIJTR-7eFmaKNw6q-1" value="System Configuration" style="rounded=0;whiteSpace=wrap;html=1;" vertex="1" parent="ZFAzNytfcKb0PuMbo4Is-1">
          <mxGeometry x="130" y="210" width="130" height="20" as="geometry" />
        </mxCell>
        <mxCell id="sR3SkIJTR-7eFmaKNw6q-2" value="Country Configuration" style="rounded=0;whiteSpace=wrap;html=1;" vertex="1" parent="ZFAzNytfcKb0PuMbo4Is-1">
          <mxGeometry x="130" y="230" width="130" height="20" as="geometry" />
        </mxCell>
        <mxCell id="sR3SkIJTR-7eFmaKNw6q-7" value="Branding" style="rounded=1;whiteSpace=wrap;html=1;strokeWidth=1;fillColor=none;dashed=1;absoluteArcSize=1;arcSize=8;container=1;collapsible=0;recursiveResize=0;align=left;verticalAlign=top;" vertex="1" parent="ZFAzNytfcKb0PuMbo4Is-1">
          <mxGeometry x="440" y="160" width="150" height="100" as="geometry" />
        </mxCell>
        <mxCell id="sR3SkIJTR-7eFmaKNw6q-9" value="Provider Org" style="rounded=0;whiteSpace=wrap;html=1;" vertex="1" parent="sR3SkIJTR-7eFmaKNw6q-7">
          <mxGeometry x="10" y="50" width="130" height="20" as="geometry" />
        </mxCell>
        <mxCell id="sR3SkIJTR-7eFmaKNw6q-8" value="Sponsor Org" style="rounded=0;whiteSpace=wrap;html=1;" vertex="1" parent="sR3SkIJTR-7eFmaKNw6q-7">
          <mxGeometry x="10" y="30" width="130" height="20" as="geometry" />
        </mxCell>
        <mxCell id="sR3SkIJTR-7eFmaKNw6q-11" value="User Mgmt" style="rounded=0;whiteSpace=wrap;html=1;" vertex="1" parent="ZFAzNytfcKb0PuMbo4Is-1">
          <mxGeometry x="290" y="300" width="130" height="20" as="geometry" />
        </mxCell>
        <mxCell id="sR3SkIJTR-7eFmaKNw6q-12" value="Group Mgmt" style="rounded=0;whiteSpace=wrap;html=1;" vertex="1" parent="ZFAzNytfcKb0PuMbo4Is-1">
          <mxGeometry x="290" y="320" width="130" height="20" as="geometry" />
        </mxCell>
        <mxCell id="sR3SkIJTR-7eFmaKNw6q-13" value="Organisation Mgmt" style="rounded=0;whiteSpace=wrap;html=1;" vertex="1" parent="ZFAzNytfcKb0PuMbo4Is-1">
          <mxGeometry x="290" y="340" width="130" height="20" as="geometry" />
        </mxCell>
        <mxCell id="sR3SkIJTR-7eFmaKNw6q-14" value="Tenancy Mgmt" style="rounded=0;whiteSpace=wrap;html=1;" vertex="1" parent="ZFAzNytfcKb0PuMbo4Is-1">
          <mxGeometry x="290" y="360" width="130" height="20" as="geometry" />
        </mxCell>
        <mxCell id="sR3SkIJTR-7eFmaKNw6q-15" value="User Profile Mgmt" style="rounded=0;whiteSpace=wrap;html=1;" vertex="1" parent="ZFAzNytfcKb0PuMbo4Is-1">
          <mxGeometry x="450" y="300" width="130" height="20" as="geometry" />
        </mxCell>
        <mxCell id="sR3SkIJTR-7eFmaKNw6q-16" value="Group Profle Mgmt" style="rounded=0;whiteSpace=wrap;html=1;" vertex="1" parent="ZFAzNytfcKb0PuMbo4Is-1">
          <mxGeometry x="450" y="320" width="130" height="20" as="geometry" />
        </mxCell>
        <mxCell id="sR3SkIJTR-7eFmaKNw6q-17" value="Org Profile Mgmt" style="rounded=0;whiteSpace=wrap;html=1;" vertex="1" parent="ZFAzNytfcKb0PuMbo4Is-1">
          <mxGeometry x="450" y="340" width="130" height="20" as="geometry" />
        </mxCell>
        <mxCell id="sR3SkIJTR-7eFmaKNw6q-18" value="Tenancy Profile Mgmt" style="rounded=0;whiteSpace=wrap;html=1;" vertex="1" parent="ZFAzNytfcKb0PuMbo4Is-1">
          <mxGeometry x="450" y="360" width="130" height="20" as="geometry" />
        </mxCell>
        <mxCell id="sR3SkIJTR-7eFmaKNw6q-20" value="Diagnostics / Exceptions" style="rounded=1;whiteSpace=wrap;html=1;strokeWidth=1;fillColor=none;dashed=1;absoluteArcSize=1;arcSize=8;container=1;collapsible=0;recursiveResize=0;align=left;verticalAlign=top;" vertex="1" parent="ZFAzNytfcKb0PuMbo4Is-1">
          <mxGeometry x="280" y="160" width="150" height="100" as="geometry" />
        </mxCell>
        <mxCell id="sR3SkIJTR-7eFmaKNw6q-22" value="Exception Recording" style="rounded=0;whiteSpace=wrap;html=1;" vertex="1" parent="sR3SkIJTR-7eFmaKNw6q-20">
          <mxGeometry x="10" y="30" width="130" height="20" as="geometry" />
        </mxCell>
        <mxCell id="sR3SkIJTR-7eFmaKNw6q-21" value="Diagnostics Logging" style="rounded=0;whiteSpace=wrap;html=1;" vertex="1" parent="sR3SkIJTR-7eFmaKNw6q-20">
          <mxGeometry x="10" y="50" width="130" height="20" as="geometry" />
        </mxCell>
        <mxCell id="sR3SkIJTR-7eFmaKNw6q-23" value="Authorisation" style="rounded=1;whiteSpace=wrap;html=1;strokeWidth=1;fillColor=none;dashed=1;absoluteArcSize=1;arcSize=8;container=1;collapsible=0;recursiveResize=0;align=left;verticalAlign=top;" vertex="1" parent="ZFAzNytfcKb0PuMbo4Is-1">
          <mxGeometry x="280" y="490" width="150" height="120" as="geometry" />
        </mxCell>
        <mxCell id="sR3SkIJTR-7eFmaKNw6q-24" value="Module Permission Mgmt" style="rounded=0;whiteSpace=wrap;html=1;fontSize=8;" vertex="1" parent="sR3SkIJTR-7eFmaKNw6q-23">
          <mxGeometry x="10" y="30" width="130" height="20" as="geometry" />
        </mxCell>
        <mxCell id="sR3SkIJTR-7eFmaKNw6q-25" value="Group Role Permission Mgmt" style="rounded=0;whiteSpace=wrap;html=1;fontSize=8;" vertex="1" parent="sR3SkIJTR-7eFmaKNw6q-23">
          <mxGeometry x="10" y="50" width="130" height="20" as="geometry" />
        </mxCell>
        <mxCell id="sR3SkIJTR-7eFmaKNw6q-27" value="Resource Role Permission Mgmt" style="rounded=0;whiteSpace=wrap;html=1;fontSize=8;" vertex="1" parent="sR3SkIJTR-7eFmaKNw6q-23">
          <mxGeometry x="10" y="70" width="130" height="20" as="geometry" />
        </mxCell>
        <mxCell id="sR3SkIJTR-7eFmaKNw6q-28" value="Media" style="rounded=1;whiteSpace=wrap;html=1;strokeWidth=1;fillColor=none;dashed=1;absoluteArcSize=1;arcSize=8;container=1;collapsible=0;recursiveResize=0;align=left;verticalAlign=top;fontSize=11;" vertex="1" parent="ZFAzNytfcKb0PuMbo4Is-1">
          <mxGeometry x="440" y="400" width="150" height="120" as="geometry" />
        </mxCell>
        <mxCell id="sR3SkIJTR-7eFmaKNw6q-29" value="Versioned Media Mgmt" style="rounded=0;whiteSpace=wrap;html=1;fontSize=9;" vertex="1" parent="sR3SkIJTR-7eFmaKNw6q-28">
          <mxGeometry x="10" y="30" width="130" height="20" as="geometry" />
        </mxCell>
        <mxCell id="sR3SkIJTR-7eFmaKNw6q-30" value="Tagging/Metadata/SEO Mgmt" style="rounded=0;whiteSpace=wrap;html=1;fontSize=9;" vertex="1" parent="sR3SkIJTR-7eFmaKNw6q-28">
          <mxGeometry x="10" y="50" width="130" height="20" as="geometry" />
        </mxCell>
        <mxCell id="sR3SkIJTR-7eFmaKNw6q-31" value="Media Relationship Mgmt" style="rounded=0;whiteSpace=wrap;html=1;fontSize=9;" vertex="1" parent="sR3SkIJTR-7eFmaKNw6q-28">
          <mxGeometry x="10" y="70" width="130" height="20" as="geometry" />
        </mxCell>
        <mxCell id="sR3SkIJTR-7eFmaKNw6q-32" value="Media Relationship Metadata Mgmt" style="rounded=0;whiteSpace=wrap;html=1;fontSize=9;" vertex="1" parent="sR3SkIJTR-7eFmaKNw6q-28">
          <mxGeometry x="10" y="90" width="130" height="20" as="geometry" />
        </mxCell>
        <mxCell id="sR3SkIJTR-7eFmaKNw6q-33" value="Integration / Reuse" style="rounded=1;whiteSpace=wrap;html=1;strokeWidth=1;fillColor=none;dashed=1;absoluteArcSize=1;arcSize=8;container=1;collapsible=0;recursiveResize=0;align=left;verticalAlign=top;" vertex="1" parent="ZFAzNytfcKb0PuMbo4Is-1">
          <mxGeometry x="120" y="400" width="150" height="80" as="geometry" />
        </mxCell>
        <mxCell id="sR3SkIJTR-7eFmaKNw6q-34" value="Device Integration" style="rounded=0;whiteSpace=wrap;html=1;" vertex="1" parent="sR3SkIJTR-7eFmaKNw6q-33">
          <mxGeometry x="10" y="30" width="130" height="20" as="geometry" />
        </mxCell>
        <mxCell id="sR3SkIJTR-7eFmaKNw6q-35" value="Environment Integration" style="rounded=0;whiteSpace=wrap;html=1;" vertex="1" parent="sR3SkIJTR-7eFmaKNw6q-33">
          <mxGeometry x="10" y="50" width="130" height="20" as="geometry" />
        </mxCell>
        <mxCell id="sR3SkIJTR-7eFmaKNw6q-39" value="Operations Management" style="rounded=1;whiteSpace=wrap;html=1;strokeWidth=1;fillColor=none;dashed=1;absoluteArcSize=1;arcSize=8;container=1;collapsible=0;recursiveResize=0;align=left;verticalAlign=top;" vertex="1" parent="ZFAzNytfcKb0PuMbo4Is-1">
          <mxGeometry x="280" y="400" width="150" height="80" as="geometry" />
        </mxCell>
        <mxCell id="sR3SkIJTR-7eFmaKNw6q-50" value="Operation Queue Mgmt" style="rounded=0;whiteSpace=wrap;html=1;" vertex="1" parent="sR3SkIJTR-7eFmaKNw6q-39">
          <mxGeometry x="10" y="30" width="130" height="20" as="geometry" />
        </mxCell>
        <mxCell id="sR3SkIJTR-7eFmaKNw6q-51" value="Workflow Mgmt" style="rounded=0;whiteSpace=wrap;html=1;" vertex="1" parent="sR3SkIJTR-7eFmaKNw6q-39">
          <mxGeometry x="10" y="50" width="130" height="20" as="geometry" />
        </mxCell>
        <mxCell id="34EN9PZpOTkH6_pnGPi--0" value="&lt;font style=&quot;font-size: 12px&quot;&gt;Diagram: Base System Logical Module - Functionality Groups - High Level&lt;/font&gt;" style="text;strokeColor=none;fillColor=none;html=1;fontSize=12;fontStyle=2;verticalAlign=middle;align=left;shadow=0;glass=0;comic=0;opacity=30;fontColor=#808080;strokeWidth=1;" vertex="1" parent="ZFAzNytfcKb0PuMbo4Is-1">
          <mxGeometry x="120" y="640" width="520" height="20" as="geometry" />
        </mxCell>
      </root>
    </mxGraphModel>
  </diagram>
</mxfile>
